<svg width="29" height="26" viewBox="0 0 29 26" fill="none" xmlns="http://www.w3.org/2000/svg">
<path d="M9.66658 21.6667V22.9167C9.97457 22.9167 10.2717 22.803 10.501 22.5974L9.66658 21.6667ZM4.83325 21.6667H3.58325C3.58325 22.357 4.1429 22.9167 4.83325 22.9167V21.6667ZM4.83325 17.3333L3.99882 16.4026C3.73436 16.6397 3.58325 16.9781 3.58325 17.3333H4.83325ZM18.4788 5.09937L19.3133 6.03008V6.03008L18.4788 5.09937ZM20.1877 5.09937L19.3532 6.03008V6.03008L20.1877 5.09937ZM23.3122 7.90064L24.1466 6.96993L24.1466 6.96992L23.3122 7.90064ZM23.3122 9.4327L22.4777 8.50199L23.3122 9.4327ZM9.66658 20.4167H4.83325V22.9167H9.66658V20.4167ZM6.08325 21.6667V17.3333H3.58325V21.6667H6.08325ZM5.66768 18.264L19.3133 6.03008L17.6444 4.16866L3.99882 16.4026L5.66768 18.264ZM19.3532 6.03008L22.4777 8.83135L24.1466 6.96992L21.0221 4.16866L19.3532 6.03008ZM22.4777 8.50199L8.83215 20.736L10.501 22.5974L24.1466 10.3634L22.4777 8.50199ZM22.4777 8.83135C22.4558 8.81169 22.4161 8.75337 22.4161 8.66667C22.4161 8.57997 22.4558 8.52165 22.4777 8.50199L24.1466 10.3634C25.1726 9.44357 25.1726 7.88977 24.1466 6.96993L22.4777 8.83135ZM19.3133 6.03008C19.3057 6.03689 19.3017 6.03759 19.3057 6.03616C19.3103 6.03447 19.3201 6.03207 19.3333 6.03207C19.3464 6.03207 19.3562 6.03447 19.3608 6.03616C19.3648 6.03759 19.3608 6.03689 19.3532 6.03008L21.0221 4.16866C20.0754 3.31987 18.5911 3.31987 17.6444 4.16866L19.3133 6.03008Z" fill="white"/>
<path d="M14.5 8.66667L19.3333 13" stroke="white" stroke-width="2" stroke-linecap="round" stroke-linejoin="round"/>
</svg>
