<svg width="42" height="34" viewBox="0 0 42 34" fill="none" xmlns="http://www.w3.org/2000/svg">
<path fill-rule="evenodd" clip-rule="evenodd" d="M11.4207 0.0196949C10.3328 0.147527 9.33845 0.495567 8.37311 1.08634C4.53182 3.43721 1.45644 9.48603 0.390846 16.7864C0.197546 18.1107 0.0900978 19.2449 0.0236765 20.6619C-0.0226865 21.6512 0.00226847 23.6361 0.0704476 24.3791C0.35368 27.4659 1.14697 29.8132 2.47213 31.4857C3.24442 32.4604 4.10491 33.1234 5.13915 33.5407C5.94468 33.8657 6.67146 34.0001 7.62251 34C9.44652 33.9998 10.7815 33.4349 12.1935 32.066C12.8529 31.4267 13.8602 30.1155 14.6019 28.9309C15.917 26.8304 16.7693 25.1496 19.5019 19.2668L21.0061 16.0289L21.3329 16.6849C21.7569 17.5362 23.2691 20.6107 24.1861 22.4857C26.478 27.1724 27.8082 29.4588 29.2394 31.1715C30.6638 32.8759 31.9882 33.6924 33.7345 33.9429C34.2018 34.0099 35.1636 34.0186 35.6074 33.9598C36.8155 33.7999 37.8974 33.297 38.7902 32.4805C39.0913 32.2051 39.6522 31.5423 39.9004 31.1685C40.9195 29.6341 41.6048 27.4339 41.8663 24.8572C42.0646 22.9038 42.0414 20.4436 41.8025 18.0869C41.1115 11.2709 38.6691 5.32467 35.2886 2.22777C33.2605 0.369876 30.9465 -0.362579 28.7842 0.168948C26.5138 0.727058 24.3066 2.79062 21.9545 6.55445C21.7836 6.82794 21.6266 7.07481 21.6056 7.103C21.5746 7.14466 21.5019 7.05557 21.2189 6.62919C18.139 1.98836 15.3608 -0.0335875 12.1115 0.00064653C11.792 0.00401256 11.4811 0.0125804 11.4207 0.0196949ZM30.8197 4.4879C31.9177 4.78599 32.9151 5.51821 33.8833 6.73706C34.5381 7.56139 35.058 8.42887 35.5619 9.53798C36.8984 12.4797 37.6749 15.9551 37.9507 20.2289C38.0118 21.1762 38.0026 23.5432 37.9354 24.1496C37.6616 26.6218 36.907 27.9887 35.5976 28.3846C35.227 28.4966 34.5299 28.5043 34.1628 28.4003C33.1901 28.1249 32.5055 27.427 31.3439 25.5266C30.5005 24.1468 28.7004 20.6951 26.676 16.576C25.1373 13.445 24.6193 12.4283 23.8438 11.0171L23.6266 10.622L23.9862 9.96519C25.818 6.61917 27.3946 4.90311 29.0329 4.47226C29.2891 4.40486 29.4129 4.39641 29.9565 4.40922C30.3883 4.41936 30.6578 4.44395 30.8197 4.4879ZM12.7077 5.6216C13.938 5.82972 14.9862 6.55774 16.225 8.06446C16.9586 8.9568 17.6628 9.99293 18.5027 11.4158L18.8567 12.0154L18.7533 12.2111C18.6964 12.3187 18.2924 13.078 17.8554 13.8985C16.789 15.9008 15.8442 17.693 14.8104 19.6743C13.6965 21.8091 13.4048 22.3521 12.7763 23.4611C10.9827 26.6263 9.91992 27.9156 8.77387 28.3167C7.90132 28.6221 7.00378 28.5095 6.29914 28.0063C6.0375 27.8194 5.60743 27.306 5.41058 26.9455C4.97753 26.1524 4.69611 25.0775 4.57347 23.748C4.52265 23.1971 4.52287 21.3724 4.57388 20.5923C4.92542 15.2138 6.44799 10.3163 8.60938 7.61177C9.6127 6.35635 10.5432 5.73452 11.6718 5.56526C11.828 5.54185 12.4296 5.5746 12.7077 5.6216Z" fill="#F15BB5"/>
<path fill-rule="evenodd" clip-rule="evenodd" d="M11.4207 0.0196949C10.3328 0.147527 9.33845 0.495567 8.37311 1.08634C4.53182 3.43721 1.45644 9.48603 0.390846 16.7864C0.197546 18.1107 0.0900978 19.2449 0.0236765 20.6619C-0.0226865 21.6512 0.00226847 23.6361 0.0704476 24.3791C0.35368 27.4659 1.14697 29.8132 2.47213 31.4857C3.24442 32.4604 4.10491 33.1234 5.13915 33.5407C5.94468 33.8657 6.67146 34.0001 7.62251 34C9.44652 33.9998 10.7815 33.4349 12.1935 32.066C12.8529 31.4267 13.8602 30.1155 14.6019 28.9309C15.917 26.8304 16.7693 25.1496 19.5019 19.2668L21.0061 16.0289L21.3329 16.6849C21.7569 17.5362 23.2691 20.6107 24.1861 22.4857C26.478 27.1724 27.8082 29.4588 29.2394 31.1715C30.6638 32.8759 31.9882 33.6924 33.7345 33.9429C34.2018 34.0099 35.1636 34.0186 35.6074 33.9598C36.8155 33.7999 37.8974 33.297 38.7902 32.4805C39.0913 32.2051 39.6522 31.5423 39.9004 31.1685C40.9195 29.6341 41.6048 27.4339 41.8663 24.8572C42.0646 22.9038 42.0414 20.4436 41.8025 18.0869C41.1115 11.2709 38.6691 5.32467 35.2886 2.22777C33.2605 0.369876 30.9465 -0.362579 28.7842 0.168948C26.5138 0.727058 24.3066 2.79062 21.9545 6.55445C21.7836 6.82794 21.6266 7.07481 21.6056 7.103C21.5746 7.14466 21.5019 7.05557 21.2189 6.62919C18.139 1.98836 15.3608 -0.0335875 12.1115 0.00064653C11.792 0.00401256 11.4811 0.0125804 11.4207 0.0196949ZM30.8197 4.4879C31.9177 4.78599 32.9151 5.51821 33.8833 6.73706C34.5381 7.56139 35.058 8.42887 35.5619 9.53798C36.8984 12.4797 37.6749 15.9551 37.9507 20.2289C38.0118 21.1762 38.0026 23.5432 37.9354 24.1496C37.6616 26.6218 36.907 27.9887 35.5976 28.3846C35.227 28.4966 34.5299 28.5043 34.1628 28.4003C33.1901 28.1249 32.5055 27.427 31.3439 25.5266C30.5005 24.1468 28.7004 20.6951 26.676 16.576C25.1373 13.445 24.6193 12.4283 23.8438 11.0171L23.6266 10.622L23.9862 9.96519C25.818 6.61917 27.3946 4.90311 29.0329 4.47226C29.2891 4.40486 29.4129 4.39641 29.9565 4.40922C30.3883 4.41936 30.6578 4.44395 30.8197 4.4879ZM12.7077 5.6216C13.938 5.82972 14.9862 6.55774 16.225 8.06446C16.9586 8.9568 17.6628 9.99293 18.5027 11.4158L18.8567 12.0154L18.7533 12.2111C18.6964 12.3187 18.2924 13.078 17.8554 13.8985C16.789 15.9008 15.8442 17.693 14.8104 19.6743C13.6965 21.8091 13.4048 22.3521 12.7763 23.4611C10.9827 26.6263 9.91992 27.9156 8.77387 28.3167C7.90132 28.6221 7.00378 28.5095 6.29914 28.0063C6.0375 27.8194 5.60743 27.306 5.41058 26.9455C4.97753 26.1524 4.69611 25.0775 4.57347 23.748C4.52265 23.1971 4.52287 21.3724 4.57388 20.5923C4.92542 15.2138 6.44799 10.3163 8.60938 7.61177C9.6127 6.35635 10.5432 5.73452 11.6718 5.56526C11.828 5.54185 12.4296 5.5746 12.7077 5.6216Z" fill="#F15BB5"/>
<path d="M25.5026 14.2282C20.1829 3.69178 16.6409 0 12.0712 0L12.0137 5.53597C15.0056 5.53597 17.3256 8.40912 22.3708 18.7566L22.6783 19.3866L25.5026 14.2282Z" fill="#F15BB5"/>
</svg>
