<svg width="89" height="92" viewBox="0 0 89 92" fill="none" xmlns="http://www.w3.org/2000/svg">
<g filter="url(#filter0_d_181_946)">
<rect x="4" width="81" height="83.9348" rx="14" fill="#ECF1F8"/>
<path d="M40.833 55.1793H63.7497" stroke="#3477F5" stroke-width="4" stroke-linecap="round" stroke-linejoin="round"/>
<path d="M26.25 55.1793H32.5" stroke="#3477F5" stroke-width="4" stroke-linecap="round" stroke-linejoin="round"/>
<path d="M32.5 59.5834L32.5 50.7754" stroke="#3477F5" stroke-width="4" stroke-linecap="round" stroke-linejoin="round"/>
<path d="M61.667 41.9674H63.7503" stroke="#3477F5" stroke-width="4" stroke-linecap="round" stroke-linejoin="round"/>
<path d="M26.25 41.9674H53.3333" stroke="#3477F5" stroke-width="4" stroke-linecap="round" stroke-linejoin="round"/>
<path d="M53.333 46.3713L53.333 37.5634" stroke="#3477F5" stroke-width="4" stroke-linecap="round" stroke-linejoin="round"/>
<path d="M49.167 28.7554H63.7503" stroke="#3477F5" stroke-width="4" stroke-linecap="round" stroke-linejoin="round"/>
<path d="M26.25 28.7554H40.8333" stroke="#3477F5" stroke-width="4" stroke-linecap="round" stroke-linejoin="round"/>
<path d="M40.833 33.1594L40.833 24.3514" stroke="#3477F5" stroke-width="4" stroke-linecap="round" stroke-linejoin="round"/>
<path d="M26 20.5435H64V10.5435H26V20.5435ZM65 21.5435V62.3913H75V21.5435H65ZM64 63.3913H26V73.3913H64V63.3913ZM25 62.3913V21.5435H15V62.3913H25ZM26 63.3913C25.4477 63.3913 25 62.9436 25 62.3913H15C15 68.4664 19.9249 73.3913 26 73.3913V63.3913ZM65 62.3913C65 62.9436 64.5523 63.3913 64 63.3913V73.3913C70.0751 73.3913 75 68.4664 75 62.3913H65ZM64 20.5435C64.5523 20.5435 65 20.9912 65 21.5435H75C75 15.4683 70.0751 10.5435 64 10.5435V20.5435ZM26 10.5435C19.9249 10.5435 15 15.4683 15 21.5435H25C25 20.9912 25.4477 20.5435 26 20.5435V10.5435Z" fill="white"/>
<path d="M26 20.5435H64V10.5435H26V20.5435ZM65 21.5435V62.3913H75V21.5435H65ZM64 63.3913H26V73.3913H64V63.3913ZM25 62.3913V21.5435H15V62.3913H25ZM26 63.3913C25.4477 63.3913 25 62.9436 25 62.3913H15C15 68.4664 19.9249 73.3913 26 73.3913V63.3913ZM65 62.3913C65 62.9436 64.5523 63.3913 64 63.3913V73.3913C70.0751 73.3913 75 68.4664 75 62.3913H65ZM64 20.5435C64.5523 20.5435 65 20.9912 65 21.5435H75C75 15.4683 70.0751 10.5435 64 10.5435V20.5435ZM26 10.5435C19.9249 10.5435 15 15.4683 15 21.5435H25C25 20.9912 25.4477 20.5435 26 20.5435V10.5435Z" fill="#3477F5"/>
</g>
<defs>
<filter id="filter0_d_181_946" x="0" y="0" width="89" height="91.9348" filterUnits="userSpaceOnUse" color-interpolation-filters="sRGB">
<feFlood flood-opacity="0" result="BackgroundImageFix"/>
<feColorMatrix in="SourceAlpha" type="matrix" values="0 0 0 0 0 0 0 0 0 0 0 0 0 0 0 0 0 0 127 0" result="hardAlpha"/>
<feOffset dy="4"/>
<feGaussianBlur stdDeviation="2"/>
<feComposite in2="hardAlpha" operator="out"/>
<feColorMatrix type="matrix" values="0 0 0 0 0 0 0 0 0 0 0 0 0 0 0 0 0 0 0.25 0"/>
<feBlend mode="normal" in2="BackgroundImageFix" result="effect1_dropShadow_181_946"/>
<feBlend mode="normal" in="SourceGraphic" in2="effect1_dropShadow_181_946" result="shape"/>
</filter>
</defs>
</svg>
