<svg width="78" height="72" viewBox="0 0 78 72" fill="none" xmlns="http://www.w3.org/2000/svg">
<rect width="77.6829" height="71.5" rx="14" fill="white"/>
<circle cx="24.8571" cy="21.7143" r="5.71429" fill="black"/>
<path d="M29.8437 31.2497C31.2673 32.6615 32.5355 38.6343 33.2862 42.9126C33.7047 45.2979 31.8456 47.4324 29.4238 47.4324H21.054C18.4735 47.4324 16.5682 45.025 17.161 42.5135L18.5809 36.4979C19.2679 33.5871 20.9213 30.995 23.2712 29.1448V29.1448C24.5479 28.1395 26.3488 28.1336 27.5832 29.1905C28.3245 29.8252 29.1445 30.5562 29.8437 31.2497Z" fill="black"/>
<rect x="19.1428" y="44.5713" width="4.28571" height="11.4286" rx="2.14286" fill="black"/>
<rect x="27.7144" y="44.5713" width="4.28571" height="11.4286" rx="2.14286" fill="black"/>
<path d="M18.8119 24.8838C19.606 25.7613 20.2743 27.846 18.8119 29.1695C17.3494 30.4931 14.606 30.7613 13.8118 29.8838C13.0177 29.0063 14.5262 28.3152 15.0322 25.1376C16.4947 23.8141 18.0177 24.0063 18.8119 24.8838Z" fill="black"/>
<circle cx="47.7143" cy="21.7143" r="5.71427" fill="black"/>
<path d="M39.0173 33.0036C39.0248 30.8052 40.8051 29.0249 43.0036 29.0173L53.0033 28.983C55.2232 28.9754 57.0246 30.7769 57.017 32.9967L56.9827 42.9965C56.9752 45.1949 55.1949 46.9752 52.9965 46.9827L42.9967 47.017C40.7769 47.0246 38.9754 45.2232 38.983 43.0033L39.0173 33.0036Z" fill="black"/>
<rect x="42" y="44" width="4" height="12" rx="2" fill="black"/>
<rect x="50" y="44" width="4" height="12" rx="2" fill="black"/>
</svg>
