<svg width="2016" height="1231" viewBox="0 0 2016 1231" fill="none" xmlns="http://www.w3.org/2000/svg">
<rect width="2016" height="1231" fill="white"/>
<path d="M1659.58 799.002C1687.91 794.813 1704.15 749.254 1708.72 726.999C1716.33 702.91 1731.16 716.962 1737.63 726.999C1743.41 744.803 1798.81 788.529 1825.79 808.166V1227.1L1045.5 1217.45V1171.13L1207.93 1041.2C1220.65 1038.05 1274.41 990.139 1299.71 966.574C1317.29 934.281 1353.47 869.958 1357.52 871.006C1361.57 872.053 1392.45 838.277 1407.38 821.258C1424 813.403 1441.35 726.999 1447.85 726.999C1453.05 726.999 1461.1 705.179 1464.47 694.27C1469.67 675.418 1481.57 672.451 1486.87 673.323C1504.22 681.178 1537.46 749.254 1546.13 757.109C1553.07 763.393 1566.85 771.073 1572.87 774.128C1586.16 778.317 1598.64 844.822 1603.22 877.551L1636.46 829.113L1659.58 799.002Z" fill="#060930"/>
<path d="M1848.75 799.092C1877.19 794.902 1893.5 749.336 1898.09 727.076C1905.73 702.983 1920.63 717.037 1927.12 727.076C1932.92 744.884 1988.55 788.617 2015.64 808.258V1227.26H1242.85L1342.99 1203.56L1400.32 1123.68C1413.09 1120.54 1454.57 1118.45 1479.97 1094.88C1497.62 1062.58 1526.76 851.499 1555.83 943.552C1586.91 1041.98 1610.99 928.587 1625.98 911.565C1642.67 903.708 1652.29 815.517 1655.73 805.504C1668.8 767.532 1658.15 716.902 1661.54 705.991C1666.76 687.136 1670.01 672.518 1675.33 673.391C1692.74 681.248 1726.12 749.336 1734.83 757.192C1741.79 763.477 1755.63 771.159 1761.68 774.214C1775.03 778.404 1787.56 844.921 1792.15 877.655L1825.53 829.208L1848.75 799.092Z" fill="#141744"/>
<path d="M711.984 751.382C741.194 754.669 955.393 1211.32 960.718 1230.5H675.464H6.10352e-05V837.672C31.9481 895.199 96.3005 998.748 98.126 952.726C99.9517 906.705 127.792 952.726 152.894 882.872C166.586 936.29 199.447 952.726 212.226 952.726C225.005 952.726 251.02 892.46 262.43 862.327C272.319 839.042 295.291 796.582 308.07 813.018C320.849 829.454 330.129 806.169 333.172 792.472C333.933 770.557 337.28 721.796 344.582 702.073C353.722 677.386 405.546 725.743 431.329 720.429C435.047 719.662 437.589 714.076 438.144 702.073C439.97 662.625 460.203 633.588 470.092 624C485.305 628.109 518.014 642.902 527.142 669.2C536.27 695.498 600.927 762.339 632.114 792.472C646.567 777.406 682.775 748.094 711.984 751.382Z" fill="url(#paint0_linear_320_1945)"/>
<path d="M736.141 907.246C765.351 910.533 1039.57 1210.39 1044.89 1229.56H661.955H0.148438L1.5177 952.446C33.4657 1009.97 97.8181 1113.52 99.6437 1067.5C101.469 1021.48 129.31 1067.5 154.412 997.646C168.104 1051.06 200.964 1067.5 213.744 1067.5C226.523 1067.5 252.538 1007.23 263.948 977.1C273.836 953.816 296.808 911.355 309.588 927.791C322.367 944.228 331.647 920.943 334.69 907.246C335.45 885.331 338.797 836.57 346.1 816.846C354.601 793.885 427.487 858.336 436.349 835.511C438.122 830.943 439.297 824.725 439.662 816.846C441.487 777.399 467.751 762.936 477.64 753.348C492.853 757.457 519.532 757.675 528.66 783.974C537.788 810.272 602.444 877.113 633.632 907.246C648.084 892.179 706.932 903.959 736.141 907.246Z" fill="url(#paint1_linear_320_1945)"/>
<path fill-rule="evenodd" clip-rule="evenodd" d="M1380.19 1096.64L1379.75 1096.48V1096.81L1348.7 1108.54L1358.96 1099.65C1353.07 1099.02 1336.84 1099.27 1319.05 1105.36L1324.18 1093.3C1318.67 1092.67 1305.6 1094.19 1297.39 1105.36C1292.7 1101.19 1284.18 1091.3 1287 1084.7C1283.83 1091.58 1274.51 1105.53 1261.47 1108.54L1269.45 1099.65L1236.38 1108.54C1234.67 1106.63 1232.85 1102.19 1239.23 1099.65C1245.62 1097.11 1231.63 1102.4 1223.84 1105.36L1210.16 1099.65V1105.36C1202.75 1103.25 1185.07 1101.81 1173.67 1112.98L1169.11 1099.65L1166.26 1108.54C1161.13 1095.63 1150.18 1069.57 1147.45 1068.55C1146.65 1068.26 1147.08 1069.87 1147.91 1072.96C1150.64 1083.21 1157.74 1109.78 1138.89 1137.09L1134.9 1124.4L1129.77 1131.38C1126.73 1118.9 1117.34 1095.08 1104.12 1099.65C1111.91 1106.63 1126.81 1122.75 1124.07 1131.38C1112.48 1125.04 1087.13 1113.1 1078.46 1116.15L1083.59 1131.38L1078.46 1127.89C1073.46 1130.13 1065.17 1134.01 1062.14 1135.94C1062.49 1133.86 1061.83 1129.22 1061.15 1124.35C1060.46 1119.46 1059.73 1114.33 1059.95 1111.29C1059.54 1111.7 1059.08 1112.16 1058.57 1112.67C1052.14 1119.11 1038.55 1132.72 1038.55 1151.06L1032.28 1131.38L1028.29 1144.71L1018.03 1140.9L1024.87 1154.86C1017.46 1151.48 1000.35 1145.34 991.233 1147.88L995.794 1154.86C990.663 1152.54 978.12 1149.91 968.998 1158.04V1140.9C960.257 1144.08 941.291 1156.01 935.362 1178.35L931.371 1158.04L925.669 1166.29V1147.88C925.669 1145.34 914.647 1169.25 909.136 1181.52L903.435 1169.46C898.114 1170.52 889.068 1169.08 895.453 1154.86C888.802 1155.08 875.499 1162.1 875.499 1188.5L844.143 1178.35L853.835 1192.31L844.143 1188.5L853.835 1202.46C846.043 1197.39 826.355 1188.25 809.936 1192.31C805.185 1190.4 795.113 1189.26 792.832 1199.92C791.312 1194.42 791.122 1181.52 802.524 1173.9C797.773 1174.12 786.675 1179.23 780.29 1198.02L775.729 1192.31H759.195L767.747 1199.92C763.376 1198.65 753.722 1196.5 750.073 1198.02L748.363 1188.5L744.372 1198.02V1230.39H1379.75H1380.62H2016V1198.02L2012.01 1188.5L2010.3 1198.02C2006.65 1196.5 1997 1198.65 1992.63 1199.92L2001.18 1192.31H1984.64L1980.08 1198.02C1973.7 1179.23 1962.6 1174.12 1957.85 1173.9C1969.25 1181.52 1969.06 1194.42 1967.54 1199.92C1965.26 1189.26 1955.19 1190.4 1950.44 1192.31C1934.02 1188.25 1914.33 1197.39 1906.54 1202.46L1916.23 1188.5L1906.54 1192.31L1916.23 1178.35L1884.87 1188.5C1884.87 1162.1 1871.57 1155.08 1864.92 1154.86C1871.3 1169.08 1862.26 1170.52 1856.94 1169.46L1851.24 1181.52C1845.72 1169.25 1834.7 1145.34 1834.7 1147.88V1166.29L1829 1158.04L1825.01 1178.35C1819.08 1156.01 1800.12 1144.08 1791.37 1140.9V1158.04C1782.25 1149.91 1769.71 1152.54 1764.58 1154.86L1769.14 1147.88C1760.02 1145.34 1742.91 1151.48 1735.5 1154.86L1742.34 1140.9L1732.08 1144.71L1728.09 1131.38L1721.82 1151.06C1721.82 1132.72 1708.23 1119.11 1701.8 1112.67C1701.29 1112.16 1700.83 1111.7 1700.42 1111.29C1700.64 1114.33 1699.92 1119.46 1699.23 1124.35C1698.54 1129.22 1697.88 1133.86 1698.23 1135.94C1695.2 1134.01 1686.91 1130.13 1681.91 1127.89L1676.78 1131.38L1681.91 1116.15C1673.25 1113.1 1647.89 1125.04 1636.3 1131.38C1633.57 1122.75 1648.46 1106.63 1656.26 1099.65C1643.03 1095.08 1633.64 1118.9 1630.6 1131.38L1625.47 1124.4L1621.48 1137.09C1602.64 1109.78 1609.73 1083.21 1612.46 1072.96C1613.29 1069.87 1613.72 1068.26 1612.93 1068.55C1610.19 1069.57 1599.24 1095.63 1594.11 1108.54L1591.26 1099.65L1586.7 1112.98C1575.3 1101.81 1557.63 1103.25 1550.21 1105.36V1099.65L1536.53 1105.36C1528.74 1102.4 1514.75 1097.11 1521.14 1099.65C1527.52 1102.19 1525.7 1106.63 1523.99 1108.54L1490.92 1099.65L1498.9 1108.54C1485.86 1105.53 1476.55 1091.58 1473.38 1084.7C1476.2 1091.3 1467.67 1101.19 1462.99 1105.36C1454.78 1094.19 1441.7 1092.67 1436.19 1093.3L1441.32 1105.36C1423.53 1099.27 1407.3 1099.02 1401.41 1099.65L1411.68 1108.54L1380.62 1096.81V1096.48L1380.19 1096.64ZM1473.25 1084.42C1473.29 1084.51 1473.34 1084.61 1473.38 1084.7C1473.33 1084.61 1473.29 1084.51 1473.25 1084.42ZM1699.01 1108.54C1699.89 1108.54 1700.3 1109.59 1700.42 1111.29C1698.66 1109.48 1697.92 1108.54 1699.01 1108.54ZM1061.36 1108.54C1060.48 1108.54 1060.07 1109.59 1059.95 1111.29C1061.71 1109.48 1062.45 1108.54 1061.36 1108.54ZM1287.12 1084.42C1287.08 1084.51 1287.04 1084.61 1287 1084.7C1287.04 1084.61 1287.08 1084.51 1287.12 1084.42Z" fill="#060930"/>
<path fill-rule="evenodd" clip-rule="evenodd" d="M638.002 1096.48L637.565 1096.64L637.128 1096.48V1096.81L606.075 1108.54L616.338 1099.65C610.446 1099.02 594.217 1099.27 576.429 1105.36L581.56 1093.3C576.049 1092.67 562.975 1094.19 554.765 1105.36C550.081 1101.19 541.555 1091.3 544.375 1084.7C541.205 1091.58 531.894 1105.53 518.847 1108.54L526.829 1099.65L493.762 1108.54C492.052 1106.63 490.228 1102.19 496.613 1099.65C502.998 1097.11 489.011 1102.4 481.22 1105.36L467.537 1099.65V1105.36C460.125 1103.25 442.452 1101.81 431.049 1112.98L426.489 1099.65L423.638 1108.54C418.507 1095.63 407.561 1069.57 404.824 1068.55C404.032 1068.26 404.462 1069.87 405.286 1072.96V1072.96C408.024 1083.21 415.115 1109.78 396.272 1137.09L392.281 1124.4L387.15 1131.38C384.11 1118.9 374.722 1095.08 361.495 1099.65C369.287 1106.63 384.186 1122.75 381.449 1131.38C369.857 1125.04 344.506 1113.11 335.84 1116.15L340.971 1131.38L335.84 1127.89C330.84 1130.13 322.551 1134.01 319.52 1135.94C319.867 1133.86 319.213 1129.22 318.525 1124.35L318.525 1124.35C317.835 1119.46 317.111 1114.33 317.327 1111.29C316.921 1111.7 316.46 1112.16 315.955 1112.67L315.953 1112.67C309.523 1119.11 295.932 1132.72 295.932 1151.06L289.66 1131.38L285.67 1144.71L275.407 1140.9L282.249 1154.86C274.837 1151.48 257.734 1145.35 248.612 1147.88L253.173 1154.86C248.042 1152.54 235.499 1149.91 226.377 1158.04V1140.9C217.635 1144.08 198.67 1156.01 192.74 1178.35L188.75 1158.04L183.048 1166.29V1147.88C183.048 1145.35 172.026 1169.25 166.515 1181.52L160.814 1169.46C155.493 1170.52 146.447 1169.08 152.832 1154.86C146.181 1155.08 132.878 1162.1 132.878 1188.5L101.522 1178.35L111.214 1192.31L101.522 1188.5L111.214 1202.46C103.422 1197.39 83.734 1188.25 67.3146 1192.31C62.5636 1190.4 52.4916 1189.26 50.2111 1199.92C48.6908 1194.42 48.5007 1181.52 59.9031 1173.9C55.1521 1174.12 44.0538 1179.24 37.6685 1198.02L33.1075 1192.31H16.5742L25.126 1199.92C20.755 1198.66 11.1011 1196.5 7.45227 1198.02L5.74194 1188.5L1.7511 1198.02V1230.39H637.128H638.002H1273.38V1198.02L1269.39 1188.5L1267.68 1198.02C1264.03 1196.5 1254.38 1198.66 1250 1199.92L1258.56 1192.31H1242.02L1237.46 1198.02C1231.08 1179.24 1219.98 1174.12 1215.23 1173.9C1226.63 1181.52 1226.44 1194.42 1224.92 1199.92C1222.64 1189.26 1212.57 1190.4 1207.82 1192.31C1191.4 1188.25 1171.71 1197.39 1163.92 1202.46L1173.61 1188.5L1163.92 1192.31L1173.61 1178.35L1142.25 1188.5C1142.25 1162.1 1128.95 1155.08 1122.3 1154.86C1128.68 1169.08 1119.64 1170.52 1114.32 1169.46L1108.61 1181.52C1103.1 1169.25 1092.08 1145.35 1092.08 1147.88V1166.29L1086.38 1158.04L1082.39 1178.35C1076.46 1156.01 1057.49 1144.08 1048.75 1140.9V1158.04C1039.63 1149.91 1027.09 1152.54 1021.96 1154.86L1026.52 1147.88C1017.4 1145.35 1000.29 1151.48 992.881 1154.86L999.723 1140.9L989.46 1144.71L985.47 1131.38L979.198 1151.06C979.198 1132.72 965.607 1119.11 959.177 1112.67C958.671 1112.16 958.21 1111.7 957.803 1111.29C958.019 1114.33 957.295 1119.46 956.605 1124.35C956.605 1124.35 956.605 1124.35 956.605 1124.35C955.917 1129.22 955.263 1133.86 955.61 1135.94C952.579 1134.01 944.29 1130.13 939.29 1127.89L934.159 1131.38L939.29 1116.15C930.624 1113.11 905.273 1125.04 893.681 1131.38C890.944 1122.75 905.843 1106.63 913.635 1099.65C900.408 1095.08 891.02 1118.9 887.98 1131.38L882.849 1124.4L878.858 1137.09C860.015 1109.78 867.106 1083.21 869.844 1072.96C869.844 1072.96 869.844 1072.96 869.844 1072.96C870.668 1069.87 871.098 1068.26 870.306 1068.55C867.569 1069.57 856.623 1095.63 851.492 1108.54L848.642 1099.65L844.081 1112.98C832.678 1101.81 815.005 1103.25 807.593 1105.36V1099.65L793.91 1105.36C786.119 1102.4 772.132 1097.11 778.517 1099.65C784.902 1102.19 783.078 1106.63 781.368 1108.54L748.301 1099.65L756.283 1108.54C743.236 1105.53 733.925 1091.58 730.755 1084.7C733.575 1091.3 725.049 1101.19 720.365 1105.36C712.155 1094.19 699.081 1092.67 693.57 1093.3L698.701 1105.36C680.913 1099.27 664.684 1099.02 658.792 1099.65L669.055 1108.54L638.002 1096.81V1096.48ZM730.627 1084.42C730.672 1084.51 730.715 1084.61 730.755 1084.7C730.711 1084.61 730.669 1084.51 730.627 1084.42ZM956.394 1108.54C957.269 1108.54 957.682 1109.59 957.803 1111.29C956.042 1109.48 955.3 1108.54 956.394 1108.54ZM318.736 1108.54C319.83 1108.54 319.088 1109.48 317.327 1111.29C317.448 1109.59 317.861 1108.54 318.736 1108.54ZM544.503 1084.42C544.461 1084.51 544.419 1084.61 544.375 1084.7C544.415 1084.61 544.458 1084.51 544.503 1084.42Z" fill="#060930"/>
<defs>
<linearGradient id="paint0_linear_320_1945" x1="382.235" y1="624" x2="382.235" y2="1556.76" gradientUnits="userSpaceOnUse">
<stop stop-color="#060930"/>
<stop offset="1" stop-color="#424264"/>
</linearGradient>
<linearGradient id="paint1_linear_320_1945" x1="407.324" y1="481.9" x2="653.678" y2="1975.23" gradientUnits="userSpaceOnUse">
<stop stop-color="#060930"/>
<stop offset="1" stop-color="#424264"/>
</linearGradient>
</defs>
</svg>
