<svg width="1940" height="436" viewBox="0 0 1940 436" fill="none" xmlns="http://www.w3.org/2000/svg">
<path d="M1597.02 125.661C1624.28 122.653 1639.9 89.9394 1644.31 73.9586C1651.63 56.6618 1665.9 66.7516 1672.12 73.9586C1677.69 86.7433 1731 118.141 1756.96 132.241V433.055L1006.09 426.126V392.866L1162.39 299.569C1174.63 297.313 1226.37 262.907 1250.71 245.987C1267.63 222.799 1302.45 176.611 1306.34 177.363C1310.24 178.115 1339.95 153.862 1354.32 141.642C1370.32 136.001 1387.01 73.9586 1393.27 73.9586C1398.27 73.9586 1406.02 58.2912 1409.26 50.4576C1414.27 36.9209 1425.72 34.7902 1430.82 35.4169C1447.51 41.0571 1479.5 89.9394 1487.84 95.5796C1494.52 100.092 1507.78 105.607 1513.57 107.8C1526.37 110.808 1538.37 158.563 1542.78 182.064L1574.77 147.282L1597.02 125.661Z" fill="#131743"/>
<path d="M1779.05 125.726C1806.43 122.717 1822.11 89.9978 1826.54 74.0142C1833.89 56.7144 1848.22 66.8059 1854.47 74.0142C1860.05 86.8011 1913.59 118.204 1939.66 132.307V433.174H1196L1292.36 416.153L1347.52 358.801C1359.81 356.544 1399.73 355.04 1424.17 338.116C1441.17 314.924 1469.2 163.357 1497.18 229.456C1527.09 300.134 1550.26 218.71 1564.69 206.487C1580.75 200.846 1590 137.52 1593.32 130.33C1605.88 103.064 1595.64 66.709 1598.9 58.874C1603.93 45.3349 1607.05 34.8388 1612.17 35.4656C1628.93 41.1069 1661.05 89.9978 1669.43 95.639C1676.13 100.152 1689.44 105.668 1695.26 107.862C1708.11 110.87 1720.17 158.633 1724.59 182.138L1756.71 147.351L1779.05 125.726Z" fill="#1E2261"/>
<path d="M685.143 91.467C713.252 93.8274 919.376 421.731 924.5 435.5H650H-0.000183105V153.428C30.7434 194.736 92.6699 269.09 94.4266 236.043C96.1834 202.997 122.974 236.043 147.13 185.884C160.306 224.241 191.928 236.043 204.225 236.043C216.523 236.043 241.557 192.769 252.537 171.132C262.053 154.412 284.159 123.923 296.456 135.725C308.754 147.527 317.684 130.808 320.612 120.972C321.344 105.236 324.565 70.2229 331.592 56.0603C343.657 31.743 406.893 89.724 419.488 65.6768C420.614 63.5278 421.359 60.3701 421.627 56.0603C423.383 27.735 442.854 6.88456 452.37 0C467.01 2.95054 498.486 13.5725 507.269 32.456C516.053 51.3395 578.273 99.335 608.284 120.972C622.192 110.154 657.035 89.1065 685.143 91.467Z" fill="url(#paint0_linear_377_1986)"/>
<path d="M708.39 203.386C736.498 205.747 1000.38 421.058 1005.5 434.828H637H0.142883L1.46045 235.842C32.204 277.15 94.1306 351.503 95.8873 318.457C97.6441 285.411 124.435 318.457 148.591 268.298C161.766 306.655 193.388 318.457 205.686 318.457C217.983 318.457 243.017 275.183 253.997 253.545C263.513 236.826 285.619 206.337 297.917 218.139C310.214 229.941 319.144 213.221 322.072 203.386C322.804 187.65 326.025 152.637 333.052 138.474C344.669 115.062 415.52 171.738 421.92 146.398C422.504 144.085 422.903 141.444 423.087 138.474C424.844 110.149 450.118 99.7635 459.634 92.8789C474.274 95.8294 499.946 95.9862 508.73 114.87C517.514 133.753 579.733 181.749 609.745 203.386C623.653 192.567 680.281 201.026 708.39 203.386Z" fill="url(#paint1_linear_377_1986)"/>
<path fill-rule="evenodd" clip-rule="evenodd" d="M1328.15 339.383L1328.58 339.264V339.501L1358.46 347.923L1348.58 341.543C1354.25 341.087 1369.87 341.27 1386.99 345.644L1382.05 336.986C1387.35 336.53 1399.93 337.624 1407.83 345.644C1412.34 342.649 1420.55 335.549 1417.83 330.808C1417.79 330.74 1417.75 330.672 1417.71 330.606C1417.75 330.673 1417.79 330.74 1417.83 330.808C1420.88 335.745 1429.84 345.765 1442.4 347.923L1434.72 341.543L1466.54 347.923C1468.18 346.556 1469.94 343.366 1463.79 341.543C1457.65 339.72 1471.11 343.518 1478.61 345.644L1491.77 341.543V345.644C1498.91 344.125 1515.91 343.092 1526.89 351.113L1531.27 341.543L1534.02 347.923C1538.96 338.657 1549.49 319.943 1552.12 319.213C1552.88 319.003 1552.47 320.158 1551.68 322.375C1549.04 329.739 1542.22 348.815 1560.35 368.43L1564.19 359.316L1569.13 364.328C1572.06 355.366 1581.09 338.262 1593.82 341.543C1586.32 346.556 1571.98 358.131 1574.62 364.328C1585.77 359.771 1610.17 351.204 1618.51 353.391L1613.57 364.328L1618.51 361.822C1623.32 363.432 1631.29 366.218 1634.21 367.601C1633.88 366.104 1634.51 362.778 1635.17 359.279C1635.83 355.769 1636.53 352.086 1636.32 349.898C1634.63 348.604 1633.91 347.923 1634.96 347.923C1635.81 347.923 1636.2 348.678 1636.32 349.898C1636.71 350.197 1637.16 350.529 1637.64 350.893C1643.83 355.515 1656.91 365.288 1656.91 378.455L1662.94 364.328L1666.78 373.898L1676.66 371.164L1670.08 381.19C1677.21 378.759 1693.67 374.354 1702.45 376.177L1698.06 381.19C1702.99 379.519 1715.06 377.635 1723.84 383.468V371.164C1732.25 373.443 1750.5 382.01 1756.21 398.051L1760.05 383.468L1765.54 389.392V376.177C1765.54 374.354 1776.14 391.519 1781.45 400.329L1786.93 391.671C1792.05 392.43 1800.76 391.397 1794.61 381.19C1801.02 381.342 1813.82 386.385 1813.82 405.342L1843.99 398.051L1834.66 408.076L1843.99 405.342L1834.66 415.368C1842.16 411.722 1861.11 405.16 1876.91 408.076C1881.48 406.709 1891.17 405.889 1893.37 413.545C1894.83 409.595 1895.01 400.329 1884.04 394.861C1888.61 395.013 1899.29 398.689 1905.44 412.178L1909.83 408.076H1925.74L1917.51 413.545C1921.71 412.633 1931 411.084 1934.51 412.178L1936.16 405.342L1940 412.178V435.419H1327.73L716.31 435.419V412.178L720.15 405.342L721.796 412.178C725.307 411.084 734.598 412.633 738.804 413.545L730.574 408.076H746.484L750.873 412.178C757.018 398.689 767.698 395.013 772.27 394.861C761.297 400.329 761.48 409.595 762.943 413.545C765.138 405.889 774.83 406.709 779.402 408.076C795.202 405.16 814.148 411.722 821.646 415.368L812.319 405.342L821.646 408.076L812.319 398.051L842.494 405.342C842.494 386.385 855.295 381.341 861.696 381.19C855.551 391.397 864.256 392.43 869.376 391.671L874.863 400.329C880.166 391.519 890.773 374.354 890.773 376.177V389.392L896.259 383.468L900.099 398.051C905.805 382.01 924.056 373.443 932.468 371.164V383.468C941.246 377.635 953.316 379.519 958.254 381.19L953.865 376.177C962.643 374.354 979.101 378.759 986.233 381.19L979.65 371.164L989.525 373.898L993.366 364.328L999.4 378.455C999.4 365.288 1012.48 355.515 1018.67 350.892C1019.15 350.529 1019.6 350.197 1019.99 349.898C1020.11 348.678 1020.5 347.923 1021.35 347.923C1022.4 347.923 1021.68 348.604 1019.99 349.898C1019.78 352.086 1020.48 355.769 1021.14 359.279C1021.8 362.778 1022.43 366.104 1022.1 367.601C1025.02 366.218 1032.99 363.432 1037.8 361.822L1042.74 364.328L1037.8 353.391C1046.14 351.204 1070.54 359.771 1081.69 364.328C1084.33 358.131 1069.99 346.556 1062.49 341.543C1075.22 338.262 1084.25 355.366 1087.18 364.328L1092.12 359.316L1095.96 368.43C1114.09 348.815 1107.27 329.739 1104.63 322.375C1103.84 320.158 1103.43 319.002 1104.19 319.213C1106.82 319.943 1117.35 338.657 1122.29 347.923L1125.04 341.543L1129.42 351.113C1140.4 343.092 1157.4 344.125 1164.54 345.644V341.543L1177.7 345.644C1185.2 343.518 1198.66 339.72 1192.52 341.543C1186.37 343.366 1188.13 346.556 1189.77 347.923L1221.59 341.543L1213.91 347.923C1226.47 345.765 1235.43 335.745 1238.48 330.808C1238.52 330.74 1238.56 330.673 1238.6 330.606C1238.56 330.672 1238.52 330.74 1238.48 330.808C1235.76 335.549 1243.97 342.649 1248.48 345.644C1256.38 337.624 1268.96 336.53 1274.26 336.986L1269.32 345.644C1286.44 341.27 1302.06 341.087 1307.73 341.543L1297.85 347.923L1327.73 339.501V339.264L1328.15 339.383Z" fill="url(#paint2_linear_377_1986)"/>
<path fill-rule="evenodd" clip-rule="evenodd" d="M583.227 347.923L613.109 339.502V339.265L613.529 339.383L613.95 339.265V339.502L643.832 347.923L633.956 341.543C639.626 341.087 655.243 341.27 672.36 345.644L667.423 336.986C672.726 336.53 685.308 337.624 693.208 345.644C697.714 342.65 705.917 335.552 703.208 330.811C706.26 335.75 715.219 345.766 727.771 347.923L720.091 341.543L751.911 347.923C753.557 346.556 755.312 343.366 749.168 341.543C743.023 339.72 756.483 343.518 763.981 345.644L777.148 341.543V345.644C784.28 344.125 801.287 343.093 812.26 351.113L816.648 341.543L819.392 347.923C823.442 340.322 831.258 326.362 835.39 321.189C836.295 320.056 837.023 319.345 837.496 319.214C838.115 319.042 837.958 319.773 837.452 321.242M1225.37 435.419L613.109 435.419H1.68451V412.178L5.52484 405.342L7.17084 412.178C10.6821 411.084 19.9721 412.634 24.1782 413.545L15.9488 408.076H31.8588L36.248 412.178C42.3925 398.689 53.0724 395.013 57.6442 394.861C46.6718 400.329 46.8547 409.595 48.3176 413.545C50.5121 405.889 60.2045 406.709 64.7763 408.076C80.5768 405.16 99.5226 411.722 107.02 415.368L97.6939 405.342L107.02 408.076L97.6939 398.051L127.868 405.342C127.868 386.385 140.669 381.342 147.07 381.19C140.925 391.398 149.63 392.431 154.751 391.671L160.237 400.329C165.54 391.519 176.147 374.354 176.147 376.177V389.392L181.633 383.468L185.474 398.051C191.18 382.01 209.43 373.443 217.843 371.164V383.468C226.621 377.635 238.69 379.519 243.628 381.19L239.239 376.177C248.017 374.354 264.476 378.759 271.608 381.19L265.024 371.164L274.9 373.898L278.74 364.329L284.775 378.455C284.775 365.288 297.854 355.516 304.041 350.893C304.528 350.529 304.972 350.197 305.364 349.898C305.48 348.678 305.878 347.923 306.72 347.923C307.772 347.923 307.058 348.604 305.364 349.898C305.155 352.086 305.852 355.769 306.516 359.279C307.178 362.778 307.808 366.104 307.474 367.601C310.391 366.218 318.367 363.432 323.179 361.822L328.116 364.329L323.179 353.392C331.518 351.204 355.913 359.771 367.069 364.329C369.702 358.131 355.365 346.556 347.867 341.543C360.595 338.262 369.629 355.366 372.555 364.329L377.493 359.316L381.333 368.43C399.465 348.816 392.641 329.74 390.007 322.375C389.214 320.158 388.801 319.003 389.562 319.214C392.196 319.943 402.729 338.657 407.667 347.923L410.41 341.543L414.799 351.113C425.772 343.093 442.779 344.125 449.911 345.644V341.543L463.078 345.644C470.576 343.518 484.035 339.72 477.891 341.543C471.746 343.366 473.502 346.556 475.148 347.923L506.968 341.543L499.287 347.923C511.842 345.765 520.802 335.746 523.852 330.808C523.891 330.74 523.932 330.673 523.975 330.606C523.935 330.672 523.894 330.74 523.852 330.808C521.138 335.549 529.343 342.649 533.851 345.644C541.751 337.624 554.333 336.53 559.636 336.986L554.698 345.644C571.815 341.27 587.433 341.087 593.102 341.543L583.227 347.923M1221.53 405.342L1219.89 412.178C1219.72 412.126 1219.54 412.081 1219.36 412.041C1215.51 411.228 1206.89 412.676 1202.88 413.545L1211.11 408.076L1211.11 408.076H1195.2L1195.2 408.076L1190.81 412.178C1185.56 400.652 1177 396.29 1171.77 395.17C1170.87 394.98 1170.08 394.883 1169.41 394.861C1169.41 394.861 1169.41 394.861 1169.41 394.861C1180.39 400.329 1180.2 409.595 1178.74 413.545C1177.75 410.079 1175.22 408.35 1172.32 407.623C1168.82 406.744 1164.78 407.328 1162.28 408.076C1162.28 408.076 1162.28 408.076 1162.28 408.076C1146.48 405.16 1127.54 411.722 1120.04 415.368L1129.36 405.342L1120.04 408.076L1129.36 398.051L1099.19 405.342C1099.19 397.642 1097.08 392.238 1094.14 388.524C1089.85 383.095 1083.79 381.28 1079.99 381.19C1079.99 381.19 1079.99 381.19 1079.99 381.19C1081.75 384.124 1082.29 386.3 1082.04 387.893C1081.42 391.843 1075.96 392.212 1072.31 391.671L1066.82 400.329C1061.52 391.519 1050.91 374.354 1050.91 376.177V389.392L1050.91 389.392M1225.37 435.419L1225.37 435.419V412.178L1221.53 405.342M983.43 381.19C987.751 379.728 997.532 378.103 1005.79 381.627C1006.97 382.131 1008.12 382.739 1009.22 383.468L1009.22 371.164M983.43 381.19L987.819 376.177ZM987.819 376.177C979.041 374.354 962.583 378.759 955.451 381.19ZM955.451 381.19L962.034 371.164ZM962.034 371.164L952.159 373.898ZM923.017 350.893C929.204 355.515 942.284 365.288 942.284 378.455L948.318 364.329L952.159 373.898M921.695 349.898C921.578 348.678 921.181 347.923 920.339 347.923C920.207 347.923 920.103 347.934 920.025 347.955C919.48 348.103 920.212 348.766 921.695 349.898ZM923.017 350.893C922.53 350.529 922.086 350.197 921.695 349.898Z" fill="url(#paint3_linear_377_1986)"/>
<defs>
<linearGradient id="paint0_linear_377_1986" x1="367.825" y1="0" x2="367.825" y2="669.773" gradientUnits="userSpaceOnUse">
<stop stop-color="#1E2261"/>
<stop offset="1" stop-color="#1E2261"/>
</linearGradient>
<linearGradient id="paint1_linear_377_1986" x1="391.969" y1="-102.036" x2="525.534" y2="982.997" gradientUnits="userSpaceOnUse">
<stop stop-color="#060930"/>
<stop offset="1" stop-color="#10143E"/>
</linearGradient>
<linearGradient id="paint2_linear_377_1986" x1="1538.95" y1="335.139" x2="1539.71" y2="435.852" gradientUnits="userSpaceOnUse">
<stop stop-color="#060930"/>
<stop offset="0.68421" stop-color="#2C316A"/>
</linearGradient>
<linearGradient id="paint3_linear_377_1986" x1="824.329" y1="335.139" x2="825.086" y2="435.853" gradientUnits="userSpaceOnUse">
<stop stop-color="#060930"/>
<stop offset="0.68421" stop-color="#292D65"/>
</linearGradient>
</defs>
</svg>
