<svg width="29" height="23" viewBox="0 0 29 23" fill="none" xmlns="http://www.w3.org/2000/svg">
<path fill-rule="evenodd" clip-rule="evenodd" d="M7.88573 0.0135671C7.13457 0.100041 6.44798 0.335478 5.78143 0.735118C3.12911 2.3254 1.00564 6.41722 0.26987 11.3557C0.136401 12.2515 0.0622104 13.0188 0.0163481 13.9773C-0.0156645 14.6465 0.00156632 15.9893 0.0486424 16.4919C0.244208 18.58 0.791955 20.1679 1.70695 21.2992C2.24019 21.9586 2.83435 22.4071 3.54846 22.6894C4.10466 22.9092 4.60648 23.0002 5.26316 23.0001C6.5226 23 7.4444 22.6178 8.41932 21.6918C8.8746 21.2594 9.5701 20.3723 10.0822 19.571C10.9903 18.1501 11.5788 17.0131 13.4656 13.0336L14.5042 10.8432L14.7299 11.287C15.0227 11.8629 16.0668 13.9427 16.6999 15.2111C18.2824 18.3814 19.2009 19.9281 20.1891 21.0867C21.1726 22.2396 22.0871 22.792 23.2929 22.9615C23.6156 23.0068 24.2796 23.0127 24.5861 22.9729C25.4202 22.8647 26.1673 22.5245 26.7837 21.9722C26.9916 21.7859 27.3789 21.3376 27.5503 21.0847C28.2539 20.0467 28.7271 18.5584 28.9077 16.8153C29.0446 15.4939 29.0286 13.8296 28.8636 12.2354C28.3865 7.62463 26.7001 3.6022 24.3659 1.50725C22.9656 0.250453 21.3678 -0.245028 19.8748 0.114531C18.3071 0.492074 16.7831 1.88801 15.1591 4.43411C15.0411 4.61911 14.9326 4.78611 14.9181 4.80518C14.8967 4.83336 14.8465 4.7731 14.6512 4.48467C12.5245 1.3453 10.6063 -0.0224767 8.36269 0.000681496C8.14209 0.0029585 7.92745 0.00875434 7.88573 0.0135671ZM21.2803 3.03616C22.0384 3.2378 22.7271 3.73313 23.3956 4.55764C23.8478 5.11527 24.2067 5.70209 24.5546 6.45236C25.4774 8.44233 26.0136 10.7933 26.204 13.6844C26.2462 14.3253 26.2399 15.9264 26.1935 16.3366C26.0044 18.009 25.4834 18.9336 24.5793 19.2015C24.3234 19.2772 23.8421 19.2824 23.5886 19.2121C22.917 19.0258 22.4443 18.5537 21.6422 17.2681C21.0599 16.3347 19.817 13.9998 18.4192 11.2134C17.3567 9.09531 16.999 8.40756 16.4636 7.45292L16.3136 7.18563L16.5619 6.74136C17.8267 4.47789 18.9153 3.31703 20.0465 3.02558C20.2234 2.97998 20.3089 2.97427 20.6843 2.98293C20.9824 2.98979 21.1685 3.00643 21.2803 3.03616ZM8.77436 3.80307C9.62386 3.94385 10.3476 4.43633 11.203 5.45558C11.7095 6.05922 12.1958 6.76012 12.7757 7.72262L13.0201 8.12826L12.9487 8.26061C12.9094 8.33342 12.6305 8.84709 12.3287 9.40211C11.5924 10.7566 10.94 11.9689 10.2262 13.3092C9.4571 14.7533 9.25572 15.1206 8.82176 15.8709C7.58326 18.012 6.84947 18.8842 6.05815 19.1555C5.45567 19.3621 4.83595 19.286 4.34941 18.9455C4.16875 18.8191 3.8718 18.4718 3.73588 18.2279C3.43686 17.6915 3.24255 16.9643 3.15787 16.0649C3.12278 15.6923 3.12294 14.458 3.15816 13.9302C3.40088 10.2919 4.45218 6.97889 5.94457 5.14935C6.63734 4.3001 7.27983 3.87945 8.05912 3.76495C8.16693 3.74912 8.58235 3.77127 8.77436 3.80307Z" fill="url(#paint0_linear_114_527)"/>
<path fill-rule="evenodd" clip-rule="evenodd" d="M7.88573 0.0135671C7.13457 0.100041 6.44798 0.335478 5.78143 0.735118C3.12911 2.3254 1.00564 6.41722 0.26987 11.3557C0.136401 12.2515 0.0622104 13.0188 0.0163481 13.9773C-0.0156645 14.6465 0.00156632 15.9893 0.0486424 16.4919C0.244208 18.58 0.791955 20.1679 1.70695 21.2992C2.24019 21.9586 2.83435 22.4071 3.54846 22.6894C4.10466 22.9092 4.60648 23.0002 5.26316 23.0001C6.5226 23 7.4444 22.6178 8.41932 21.6918C8.8746 21.2594 9.5701 20.3723 10.0822 19.571C10.9903 18.1501 11.5788 17.0131 13.4656 13.0336L14.5042 10.8432L14.7299 11.287C15.0227 11.8629 16.0668 13.9427 16.6999 15.2111C18.2824 18.3814 19.2009 19.9281 20.1891 21.0867C21.1726 22.2396 22.0871 22.792 23.2929 22.9615C23.6156 23.0068 24.2796 23.0127 24.5861 22.9729C25.4202 22.8647 26.1673 22.5245 26.7837 21.9722C26.9916 21.7859 27.3789 21.3376 27.5503 21.0847C28.2539 20.0467 28.7271 18.5584 28.9077 16.8153C29.0446 15.4939 29.0286 13.8296 28.8636 12.2354C28.3865 7.62463 26.7001 3.6022 24.3659 1.50725C22.9656 0.250453 21.3678 -0.245028 19.8748 0.114531C18.3071 0.492074 16.7831 1.88801 15.1591 4.43411C15.0411 4.61911 14.9326 4.78611 14.9181 4.80518C14.8967 4.83336 14.8465 4.7731 14.6512 4.48467C12.5245 1.3453 10.6063 -0.0224767 8.36269 0.000681496C8.14209 0.0029585 7.92745 0.00875434 7.88573 0.0135671ZM21.2803 3.03616C22.0384 3.2378 22.7271 3.73313 23.3956 4.55764C23.8478 5.11527 24.2067 5.70209 24.5546 6.45236C25.4774 8.44233 26.0136 10.7933 26.204 13.6844C26.2462 14.3253 26.2399 15.9264 26.1935 16.3366C26.0044 18.009 25.4834 18.9336 24.5793 19.2015C24.3234 19.2772 23.8421 19.2824 23.5886 19.2121C22.917 19.0258 22.4443 18.5537 21.6422 17.2681C21.0599 16.3347 19.817 13.9998 18.4192 11.2134C17.3567 9.09531 16.999 8.40756 16.4636 7.45292L16.3136 7.18563L16.5619 6.74136C17.8267 4.47789 18.9153 3.31703 20.0465 3.02558C20.2234 2.97998 20.3089 2.97427 20.6843 2.98293C20.9824 2.98979 21.1685 3.00643 21.2803 3.03616ZM8.77436 3.80307C9.62386 3.94385 10.3476 4.43633 11.203 5.45558C11.7095 6.05922 12.1958 6.76012 12.7757 7.72262L13.0201 8.12826L12.9487 8.26061C12.9094 8.33342 12.6305 8.84709 12.3287 9.40211C11.5924 10.7566 10.94 11.9689 10.2262 13.3092C9.4571 14.7533 9.25572 15.1206 8.82176 15.8709C7.58326 18.012 6.84947 18.8842 6.05815 19.1555C5.45567 19.3621 4.83595 19.286 4.34941 18.9455C4.16875 18.8191 3.8718 18.4718 3.73588 18.2279C3.43686 17.6915 3.24255 16.9643 3.15787 16.0649C3.12278 15.6923 3.12294 14.458 3.15816 13.9302C3.40088 10.2919 4.45218 6.97889 5.94457 5.14935C6.63734 4.3001 7.27983 3.87945 8.05912 3.76495C8.16693 3.74912 8.58235 3.77127 8.77436 3.80307Z" fill="url(#paint1_radial_114_527)"/>
<path d="M17.6093 9.62492C13.9362 2.49736 11.4905 0 8.33528 0L8.29553 3.74489C10.3614 3.74489 11.9633 5.68848 15.4469 12.6882L15.6592 13.1143L17.6093 9.62492Z" fill="url(#paint2_linear_114_527)"/>
<defs>
<linearGradient id="paint0_linear_114_527" x1="3.32209" y1="2.37159" x2="31.379" y2="17.2336" gradientUnits="userSpaceOnUse">
<stop stop-color="#3182F3"/>
<stop offset="0.13599" stop-color="#0164E0"/>
<stop offset="0.559391" stop-color="#0869E1"/>
<stop offset="0.96875" stop-color="#307FEF"/>
</linearGradient>
<radialGradient id="paint1_radial_114_527" cx="0" cy="0" r="1" gradientUnits="userSpaceOnUse" gradientTransform="translate(14.4981 8.47752) rotate(90) scale(12.3722 15.5999)">
<stop stop-color="#3183F3"/>
<stop offset="1" stop-color="#3183F3"/>
</radialGradient>
<linearGradient id="paint2_linear_114_527" x1="8.91962" y1="1.60381" x2="18.1312" y2="9.581" gradientUnits="userSpaceOnUse">
<stop stop-color="#3183F3"/>
<stop offset="0.660785" stop-color="#2669D9"/>
<stop offset="1" stop-color="#3183F3"/>
</linearGradient>
</defs>
</svg>
