<svg width="30" height="28" viewBox="0 0 30 28" fill="none" xmlns="http://www.w3.org/2000/svg">
<path fill-rule="evenodd" clip-rule="evenodd" d="M29.4 14.3182C29.4 13.3255 29.3045 12.3709 29.1273 11.4546H15V16.87H23.0727C22.725 18.62 21.6682 20.1027 20.0795 21.0955V24.6082H24.9273C27.7636 22.1709 29.4 18.5818 29.4 14.3182Z" fill="#4285F4"/>
<path fill-rule="evenodd" clip-rule="evenodd" d="M15 28C19.05 28 22.4455 26.7463 24.9273 24.6082L20.0796 21.0954C18.7364 21.9354 17.0182 22.4318 15 22.4318C11.0932 22.4318 7.78637 19.9691 6.60682 16.66H1.59546V20.2872C4.06364 24.8627 9.13637 28 15 28Z" fill="#34A853"/>
<path fill-rule="evenodd" clip-rule="evenodd" d="M6.60682 16.66C6.30682 15.82 6.13636 14.9227 6.13636 14C6.13636 13.0773 6.30682 12.18 6.60682 11.34V7.71274H1.59545C0.579545 9.60274 0 11.7409 0 14C0 16.2591 0.579545 18.3973 1.59545 20.2873L6.60682 16.66Z" fill="#FBBC05"/>
<path fill-rule="evenodd" clip-rule="evenodd" d="M15 5.56818C17.2023 5.56818 19.1796 6.27455 20.7341 7.66182L25.0364 3.64636C22.4386 1.38727 19.0432 0 15 0C9.13637 0 4.06364 3.13727 1.59546 7.71273L6.60682 11.34C7.78637 8.03091 11.0932 5.56818 15 5.56818Z" fill="#EA4335"/>
</svg>
