<svg width="189" height="194" viewBox="0 0 189 194" fill="none" xmlns="http://www.w3.org/2000/svg">
<path fill-rule="evenodd" clip-rule="evenodd" d="M63.7688 51.3844V80.2992C63.7688 87.1389 58.2241 92.6835 51.3844 92.6835C44.5447 92.6835 39 87.1389 39 80.2991V51.3844C39 44.5447 44.5447 39 51.3844 39C58.2241 39 63.7688 44.5447 63.7688 51.3844ZM0 51.3844C0 23.0056 23.0056 0 51.3844 0C79.7632 0 102.769 23.0056 102.769 51.3844V61.7855C108.357 60.3505 114.224 59.5863 120.273 59.5863C158.23 59.5863 189 89.6759 189 126.793C189 163.911 158.23 194 120.273 194C83.997 194 54.2856 166.517 51.7245 131.682C51.6112 131.683 51.4978 131.684 51.3844 131.684C23.0056 131.684 0 108.678 0 80.2991V51.3844ZM150 126.793C150 141.554 137.518 155 120.273 155C103.028 155 90.5454 141.554 90.5454 126.793C90.5454 112.033 103.028 98.5863 120.273 98.5863C137.518 98.5863 150 112.033 150 126.793Z" fill="url(#paint0_linear_399_3448)"/>
<defs>
<linearGradient id="paint0_linear_399_3448" x1="19" y1="18.5" x2="141.843" y2="196.442" gradientUnits="userSpaceOnUse">
<stop stop-color="#8043FC"/>
<stop offset="0.334401" stop-color="#D65EFB"/>
<stop offset="0.677139" stop-color="#FB5290"/>
<stop offset="1" stop-color="#FF9F86"/>
</linearGradient>
</defs>
</svg>
