<svg width="1940" height="328" viewBox="0 0 1940 328" fill="none" xmlns="http://www.w3.org/2000/svg">
<rect width="1940" height="328" fill="#F4DCDB"/>
<path fill-rule="evenodd" clip-rule="evenodd" d="M1940 196L1875.33 203.333C1810.67 210.667 1681.33 225.333 1552 243.667C1422.67 262 1293.33 284 1164 273C1034.67 262 905.333 218 776 218C646.667 218 517.333 262 388 251C258.667 240 129.333 174 64.6667 141L-9.53674e-06 108V328H64.6667C129.333 328 258.667 328 388 328C517.333 328 646.667 328 776 328C905.333 328 1034.67 328 1164 328C1293.33 328 1422.67 328 1552 328C1681.33 328 1810.67 328 1875.33 328H1940V196Z" fill="#742F59" fill-opacity="0.4"/>
</svg>
