<svg width="47" height="40" viewBox="0 0 47 40" fill="none" xmlns="http://www.w3.org/2000/svg">
<g clip-path="url(#clip0_369_1684)">
<path d="M46.2237 8.2283C44.6066 8.84497 42.8694 9.26163 41.0432 9.44997C42.9275 8.47962 44.3373 6.95241 45.0094 5.1533C43.239 6.05828 41.3014 6.69529 39.2808 7.03663C37.9221 5.78807 36.1223 4.96051 34.161 4.68242C32.1997 4.40434 30.1866 4.69128 28.4342 5.49872C26.6818 6.30616 25.2882 7.5889 24.4698 9.14781C23.6513 10.7067 23.4538 12.4545 23.9078 14.12C20.3206 13.965 16.8113 13.1625 13.6077 11.7648C10.4041 10.3671 7.57786 8.40523 5.3123 6.00663C4.53765 7.15663 4.09223 8.48997 4.09223 9.90997C4.09136 11.1883 4.45715 12.447 5.15714 13.5745C5.85713 14.702 6.86967 15.6634 8.10493 16.3733C6.67235 16.3341 5.27139 16.0009 4.01863 15.4016V15.5016C4.01849 17.2945 4.73912 19.0323 6.05826 20.42C7.3774 21.8077 9.21379 22.7598 11.2558 23.115C9.92688 23.4245 8.53358 23.4701 7.18115 23.2483C7.7573 24.791 8.87957 26.14 10.3909 27.1065C11.9022 28.073 13.7268 28.6086 15.6094 28.6383C12.4136 30.7973 8.46686 31.9684 4.40402 31.9633C3.68433 31.9635 2.96525 31.9273 2.25049 31.855C6.3745 34.1369 11.1751 35.348 16.078 35.3433C32.675 35.3433 41.7481 23.5133 41.7481 13.2533C41.7481 12.92 41.7384 12.5833 41.721 12.25C43.4858 11.1516 45.0092 9.79146 46.2198 8.2333L46.2237 8.2283V8.2283Z" fill="#1A1A40"/>
</g>
<defs>
<clipPath id="clip0_369_1684">
<rect width="46.4792" height="40" fill="white" transform="translate(0.436035)"/>
</clipPath>
</defs>
</svg>
