<svg width="44" height="34" viewBox="0 0 44 34" fill="none" xmlns="http://www.w3.org/2000/svg">
<path fill-rule="evenodd" clip-rule="evenodd" d="M12.5035 0.0196949C11.3904 0.147527 10.3729 0.495567 9.38521 1.08634C5.45481 3.43721 2.3081 9.48603 1.21778 16.7864C1.02 18.1107 0.910059 19.2449 0.842097 20.6619C0.794658 21.6512 0.820192 23.6361 0.889953 24.3791C1.17976 27.4659 1.99145 29.8132 3.34735 31.4857C4.13755 32.4604 5.018 33.1234 6.07623 33.5407C6.90045 33.8657 7.64408 34.0001 8.6172 34C10.4835 33.9998 11.8495 33.4349 13.2942 32.066C13.9689 31.4267 14.9995 30.1155 15.7584 28.9309C17.1041 26.8304 17.9761 25.1496 20.7722 19.2668L22.3112 16.0289L22.6456 16.6849C23.0795 17.5362 24.6268 20.6107 25.565 22.4857C27.91 27.1724 29.2711 29.4588 30.7356 31.1715C32.193 32.8759 33.5481 33.6924 35.3349 33.9429C35.8131 34.0099 36.7971 34.0186 37.2513 33.9598C38.4873 33.7999 39.5944 33.297 40.5078 32.4805C40.8159 32.2051 41.3898 31.5423 41.6439 31.1685C42.6865 29.6341 43.3878 27.4339 43.6554 24.8572C43.8582 22.9038 43.8345 20.4436 43.59 18.0869C42.883 11.2709 40.384 5.32467 36.925 2.22777C34.8499 0.369876 32.4822 -0.362579 30.2698 0.168948C27.9466 0.727058 25.6883 2.79062 23.2816 6.55445C23.1068 6.82794 22.9461 7.07481 22.9246 7.103C22.8929 7.14466 22.8185 7.05557 22.529 6.62919C19.3776 1.98836 16.535 -0.0335875 13.2103 0.00064653C12.8834 0.00401256 12.5653 0.0125804 12.5035 0.0196949ZM32.3525 4.4879C33.476 4.78599 34.4964 5.51821 35.4871 6.73706C36.1572 7.56139 36.6891 8.42887 37.2047 9.53798C38.5721 12.4797 39.3667 15.9551 39.6489 20.2289C39.7114 21.1762 39.702 23.5432 39.6333 24.1496C39.3531 26.6218 38.581 27.9887 37.2412 28.3846C36.862 28.4966 36.1487 28.5043 35.7731 28.4003C34.7779 28.1249 34.0774 27.427 32.8888 25.5266C32.0258 24.1468 30.184 20.6951 28.1127 16.576C26.5382 13.445 26.0082 12.4283 25.2147 11.0171L24.9925 10.622L25.3604 9.96519C27.2347 6.61917 28.8479 4.90311 30.5242 4.47226C30.7863 4.40486 30.913 4.39641 31.4693 4.40922C31.9111 4.41936 32.1869 4.44395 32.3525 4.4879ZM13.8203 5.6216C15.0792 5.82972 16.1517 6.55774 17.4192 8.06446C18.1699 8.9568 18.8904 9.99293 19.7498 11.4158L20.1119 12.0154L20.0062 12.2111C19.948 12.3187 19.5346 13.078 19.0875 13.8985C17.9963 15.9008 17.0296 17.693 15.9718 19.6743C14.8321 21.8091 14.5337 22.3521 13.8906 23.4611C12.0553 26.6263 10.9679 27.9156 9.79526 28.3167C8.90247 28.6221 7.98412 28.5095 7.26313 28.0063C6.99542 27.8194 6.55537 27.306 6.35396 26.9455C5.91086 26.1524 5.62292 25.0775 5.49743 23.748C5.44543 23.1971 5.44566 21.3724 5.49785 20.5923C5.85754 15.2138 7.41543 10.3163 9.62696 7.61177C10.6536 6.35635 11.6056 5.73452 12.7604 5.56526C12.9202 5.54185 13.5358 5.5746 13.8203 5.6216Z" fill="#1A1A40"/>
<path d="M26.9121 14.2284C21.469 3.6918 17.8449 0 13.1693 0L13.1104 5.53601C16.1717 5.53601 18.5455 8.40919 23.7077 18.7567L24.0224 19.3867L26.9121 14.2284Z" fill="#1A1A40"/>
</svg>
