<svg width="39" height="37" viewBox="0 0 39 37" fill="none" xmlns="http://www.w3.org/2000/svg">
<path fill-rule="evenodd" clip-rule="evenodd" d="M2.20264 4.37521C2.20264 3.6237 2.51244 2.90297 3.06388 2.37157C3.61533 1.84017 4.36325 1.54163 5.14312 1.54163H34.4551C34.8416 1.54102 35.2244 1.61388 35.5816 1.75602C35.9389 1.89817 36.2635 2.10682 36.5369 2.37002C36.8103 2.63323 37.0272 2.94582 37.1751 3.2899C37.323 3.63397 37.399 4.00279 37.3988 4.37521V32.6216C37.3992 32.9941 37.3234 33.3631 37.1758 33.7073C37.0281 34.0515 36.8114 34.3643 36.5381 34.6278C36.2649 34.8913 35.9404 35.1003 35.5832 35.2428C35.2261 35.3853 34.8433 35.4585 34.4567 35.4583H5.14312C4.75683 35.4583 4.37434 35.385 4.01748 35.2425C3.66062 35.1 3.33639 34.8911 3.06332 34.6278C2.79025 34.3645 2.57369 34.052 2.42601 33.708C2.27833 33.364 2.20243 32.9954 2.20264 32.6232V4.37521ZM16.1339 14.4731H20.8998V16.7795C21.5877 15.4536 23.3475 14.2604 25.9921 14.2604C31.0619 14.2604 32.2634 16.9013 32.2634 21.7467V30.7223H27.1327V22.8505C27.1327 20.091 26.4448 18.5339 24.6978 18.5339C22.2741 18.5339 21.2662 20.2128 21.2662 22.8505V30.7223H16.1339V14.4731ZM7.33488 30.5111H12.4671V14.2604H7.33488V30.5095V30.5111ZM13.2014 8.96013C13.2111 9.38358 13.1329 9.80464 12.9715 10.1986C12.81 10.5925 12.5685 10.9514 12.2611 11.2542C11.9538 11.557 11.5867 11.7975 11.1816 11.9618C10.7764 12.126 10.3413 12.2106 9.9018 12.2106C9.46227 12.2106 9.02716 12.126 8.62201 11.9618C8.21687 11.7975 7.84985 11.557 7.54249 11.2542C7.23513 10.9514 6.99363 10.5925 6.83215 10.1986C6.67068 9.80464 6.59248 9.38358 6.60216 8.96013C6.62115 8.12895 6.97714 7.33797 7.59387 6.7566C8.2106 6.17523 9.03906 5.84969 9.9018 5.84969C10.7646 5.84969 11.593 6.17523 12.2097 6.7566C12.8265 7.33797 13.1825 8.12895 13.2014 8.96013V8.96013Z" fill="#1A1A40"/>
</svg>
