<svg width="45" height="37" viewBox="0 0 45 37" fill="none" xmlns="http://www.w3.org/2000/svg">
<path fill-rule="evenodd" clip-rule="evenodd" d="M13.9969 1.64338C16.1963 1.56013 16.8975 1.54163 22.5 1.54163C28.1025 1.54163 28.8038 1.56167 31.0013 1.64338C33.1988 1.72508 34.6987 2.01338 36.0112 2.43117C37.3856 2.85821 38.6325 3.52575 39.6637 4.38908C40.7137 5.23546 41.5238 6.25913 42.0413 7.39071C42.5513 8.46988 42.9 9.70321 43.0013 11.507C43.1025 13.3184 43.125 13.895 43.125 18.5C43.125 23.1065 43.1006 23.683 43.0013 25.4914C42.9019 27.2952 42.5513 28.5285 42.0413 29.6077C41.5237 30.7394 40.7124 31.7648 39.6637 32.6124C38.6325 33.4757 37.3856 34.1417 36.0112 34.5672C34.6987 34.9865 33.1987 35.2733 31.005 35.3565C28.8037 35.4398 28.1025 35.4583 22.5 35.4583C16.8975 35.4583 16.1963 35.4382 13.9969 35.3565C11.8031 35.2748 10.3031 34.9865 8.99063 34.5672C7.61423 34.1417 6.36716 33.4746 5.33625 32.6124C4.28696 31.7655 3.47497 30.7406 2.95688 29.6092C2.44875 28.53 2.1 27.2967 1.99875 25.493C1.8975 23.6815 1.875 23.1049 1.875 18.5C1.875 13.8935 1.89937 13.3169 1.99875 11.51C2.09812 9.70321 2.44875 8.46988 2.95688 7.39071C3.47573 6.25925 4.28835 5.2344 5.33812 4.38754C6.36758 3.52498 7.61339 2.85735 8.98875 2.43117C10.3013 2.01338 11.8013 1.72663 13.995 1.64338H13.9969ZM30.8344 4.69588C28.6594 4.61417 28.0069 4.59721 22.5 4.59721C16.9931 4.59721 16.3406 4.61417 14.1656 4.69588C12.1537 4.77142 11.0625 5.04738 10.335 5.28017C9.37313 5.5885 8.685 5.95388 7.96313 6.54742C7.27883 7.09479 6.75221 7.76114 6.42187 8.49763C6.13875 9.09579 5.80313 9.99304 5.71125 11.6472C5.61188 13.4356 5.59125 13.9721 5.59125 18.5C5.59125 23.0278 5.61188 23.5643 5.71125 25.3527C5.80313 27.0069 6.13875 27.9041 6.42187 28.5023C6.75187 29.2377 7.27875 29.9052 7.96313 30.4525C8.62875 31.0152 9.44063 31.4484 10.335 31.7197C11.0625 31.9525 12.1537 32.2285 14.1656 32.304C16.3406 32.3857 16.9913 32.4027 22.5 32.4027C28.0087 32.4027 28.6594 32.3857 30.8344 32.304C32.8462 32.2285 33.9375 31.9525 34.665 31.7197C35.6269 31.4114 36.315 31.046 37.0369 30.4525C37.7213 29.9052 38.2481 29.2377 38.5781 28.5023C38.8613 27.9041 39.1969 27.0069 39.2888 25.3527C39.3881 23.5643 39.4087 23.0278 39.4087 18.5C39.4087 13.9721 39.3881 13.4356 39.2888 11.6472C39.1969 9.99304 38.8613 9.09579 38.5781 8.49763C38.2031 7.70675 37.7588 7.14096 37.0369 6.54742C36.3711 5.98482 35.5607 5.55183 34.665 5.28017C33.9375 5.04738 32.8462 4.77142 30.8344 4.69588V4.69588ZM19.8656 23.7277C21.3369 24.2313 22.9751 24.2993 24.5005 23.92C26.0259 23.5408 27.3439 22.7379 28.2293 21.6484C29.1147 20.559 29.5126 19.2505 29.3551 17.9467C29.1976 16.6428 28.4944 15.4243 27.3656 14.4993C26.6461 13.9081 25.776 13.4553 24.8181 13.1737C23.8602 12.8921 22.8383 12.7886 21.8259 12.8707C20.8136 12.9528 19.8359 13.2185 18.9634 13.6485C18.0909 14.0786 17.3451 14.6624 16.7799 15.3578C16.2147 16.0533 15.8441 16.8431 15.6947 17.6705C15.5453 18.4978 15.6209 19.3422 15.916 20.1426C16.2111 20.9431 16.7184 21.6798 17.4014 22.2997C18.0843 22.9197 18.9259 23.4074 19.8656 23.7277ZM15.0037 12.3364C15.9882 11.527 17.1568 10.8849 18.4431 10.4468C19.7293 10.0088 21.1078 9.78334 22.5 9.78333C23.8922 9.78333 25.2707 10.0088 26.5569 10.4468C27.8432 10.8849 29.0118 11.527 29.9963 12.3364C30.9807 13.1458 31.7616 14.1067 32.2943 15.1643C32.8271 16.2218 33.1013 17.3553 33.1013 18.5C33.1013 19.6446 32.8271 20.7781 32.2943 21.8357C31.7616 22.8932 30.9807 23.8541 29.9963 24.6635C28.0081 26.2982 25.3116 27.2166 22.5 27.2166C19.6884 27.2166 16.9919 26.2982 15.0037 24.6635C13.0156 23.0289 11.8987 20.8117 11.8987 18.5C11.8987 16.1882 13.0156 13.9711 15.0037 12.3364V12.3364ZM35.4525 11.0815C35.6964 10.8922 35.8917 10.6647 36.0268 10.4123C36.1619 10.16 36.234 9.88785 36.2389 9.61214C36.2438 9.33643 36.1814 9.06272 36.0553 8.80721C35.9292 8.5517 35.7421 8.31958 35.5049 8.1246C35.2678 7.92963 34.9855 7.77575 34.6747 7.67209C34.364 7.56843 34.0311 7.51709 33.6958 7.52111C33.3604 7.52513 33.0295 7.58443 32.7225 7.69549C32.4156 7.80656 32.1389 7.96713 31.9087 8.16771C31.4612 8.5578 31.2162 9.07594 31.2257 9.61214C31.2352 10.1483 31.4985 10.6604 31.9597 11.0396C32.4209 11.4188 33.0436 11.6353 33.6958 11.6431C34.3479 11.6509 34.9781 11.4494 35.4525 11.0815V11.0815Z" fill="#1A1A40"/>
</svg>
