<svg width="42" height="40" viewBox="0 0 42 40" fill="none" xmlns="http://www.w3.org/2000/svg">
<mask id="mask0_358_1300" style="mask-type:alpha" maskUnits="userSpaceOnUse" x="0" y="0" width="42" height="40">
<path d="M21.2906 0C9.85349 0 0.581055 8.94737 0.581055 19.9836C0.581055 28.4539 6.03543 35.6908 13.7397 38.602C13.5522 37.023 13.3988 34.5888 13.8079 32.8618C14.1829 31.2993 16.2283 22.9276 16.2283 22.9276C16.2283 22.9276 15.6147 21.727 15.6147 19.9671C15.6147 17.1875 17.2851 15.1151 19.3645 15.1151C21.1372 15.1151 21.9895 16.398 21.9895 17.9276C21.9895 19.6382 20.8645 22.2039 20.2679 24.5888C19.7736 26.5789 21.3077 28.2072 23.336 28.2072C27.0177 28.2072 29.8472 24.4572 29.8472 19.0625C29.8472 14.2763 26.2848 10.9375 21.1884 10.9375C15.2908 10.9375 11.8307 15.1974 11.8307 19.6053C11.8307 21.3158 12.5125 23.1579 13.3647 24.1612C13.5352 24.3586 13.5522 24.5395 13.5011 24.7368C13.3477 25.3618 12.9898 26.727 12.9216 27.0066C12.8363 27.3684 12.6148 27.4507 12.2227 27.2697C9.63191 26.102 8.01264 22.4671 8.01264 19.523C8.01264 13.2237 12.7511 7.43421 21.6997 7.43421C28.8756 7.43421 34.4663 12.3684 34.4663 18.9803C34.4663 25.8717 29.9665 31.4145 23.7281 31.4145C21.6315 31.4145 19.6543 30.3618 18.9896 29.1118C18.9896 29.1118 17.9498 32.9276 17.6942 33.8651C17.2339 35.6086 15.9726 37.7796 15.1204 39.1118C17.0635 39.6875 19.1089 40 21.2565 40C32.6937 40 41.9661 31.0526 41.9661 20.0164C42.0002 8.94737 32.7278 0 21.2906 0Z" fill="white"/>
</mask>
<g mask="url(#mask0_358_1300)">
<rect x="0.482422" y="-0.0810547" width="6.92549" height="40.0962" fill="#1A1A40"/>
<rect x="7.40723" y="-0.0810547" width="6.92549" height="40.0962" fill="#1A1A40"/>
<rect x="14.334" y="-0.0810547" width="6.92549" height="40.0962" fill="#1A1A40"/>
<rect x="21.2593" y="-0.0810547" width="6.92549" height="40.0962" fill="#1A1A40"/>
<rect x="28.1147" y="-0.0810547" width="6.92549" height="40.0962" fill="#1A1A40"/>
<rect x="35.04" y="-0.0810547" width="6.92549" height="40.0962" fill="#1A1A40"/>
</g>
</svg>
