<svg width="78" height="72" viewBox="0 0 78 72" fill="none" xmlns="http://www.w3.org/2000/svg">
<rect x="0.0742188" y="0.199707" width="77.6829" height="71.5" rx="14" fill="#7342F7"/>
<path d="M35.5293 48.2856H57.4399" stroke="white" stroke-width="2" stroke-linecap="round" stroke-linejoin="round"/>
<path d="M21.5864 48.2856H27.562" stroke="white" stroke-width="2" stroke-linecap="round" stroke-linejoin="round"/>
<path d="M27.562 52.162L27.562 44.4097" stroke="white" stroke-width="2" stroke-linecap="round" stroke-linejoin="round"/>
<path d="M55.4482 36.6572H57.4401" stroke="white" stroke-width="2" stroke-linecap="round" stroke-linejoin="round"/>
<path d="M21.5864 36.6572H47.4807" stroke="white" stroke-width="2" stroke-linecap="round" stroke-linejoin="round"/>
<path d="M47.481 40.5331L47.481 32.7808" stroke="white" stroke-width="2" stroke-linecap="round" stroke-linejoin="round"/>
<path d="M43.4971 25.0283H57.4402" stroke="white" stroke-width="2" stroke-linecap="round" stroke-linejoin="round"/>
<path d="M21.5864 25.0283H35.5295" stroke="white" stroke-width="2" stroke-linecap="round" stroke-linejoin="round"/>
<path d="M35.5293 28.9047L35.5293 21.1523" stroke="white" stroke-width="2" stroke-linecap="round" stroke-linejoin="round"/>
<path d="M21.6108 15.3999H57.4157V11.3999H21.6108V15.3999ZM61.4157 19.3999V53.9142H65.4157V19.3999H61.4157ZM57.4157 57.9142H21.6108V61.9142H57.4157V57.9142ZM17.6108 53.9142V19.3999H13.6108V53.9142H17.6108ZM21.6108 57.9142C19.4017 57.9142 17.6108 56.1233 17.6108 53.9142H13.6108C13.6108 58.3325 17.1926 61.9142 21.6108 61.9142V57.9142ZM61.4157 53.9142C61.4157 56.1233 59.6249 57.9142 57.4157 57.9142V61.9142C61.834 61.9142 65.4157 58.3325 65.4157 53.9142H61.4157ZM57.4157 15.3999C59.6249 15.3999 61.4157 17.1908 61.4157 19.3999H65.4157C65.4157 14.9816 61.834 11.3999 57.4157 11.3999V15.3999ZM21.6108 11.3999C17.1926 11.3999 13.6108 14.9816 13.6108 19.3999H17.6108C17.6108 17.1908 19.4017 15.3999 21.6108 15.3999V11.3999Z" fill="white"/>
<path d="M21.6108 15.3999H57.4157V11.3999H21.6108V15.3999ZM61.4157 19.3999V53.9142H65.4157V19.3999H61.4157ZM57.4157 57.9142H21.6108V61.9142H57.4157V57.9142ZM17.6108 53.9142V19.3999H13.6108V53.9142H17.6108ZM21.6108 57.9142C19.4017 57.9142 17.6108 56.1233 17.6108 53.9142H13.6108C13.6108 58.3325 17.1926 61.9142 21.6108 61.9142V57.9142ZM61.4157 53.9142C61.4157 56.1233 59.6249 57.9142 57.4157 57.9142V61.9142C61.834 61.9142 65.4157 58.3325 65.4157 53.9142H61.4157ZM57.4157 15.3999C59.6249 15.3999 61.4157 17.1908 61.4157 19.3999H65.4157C65.4157 14.9816 61.834 11.3999 57.4157 11.3999V15.3999ZM21.6108 11.3999C17.1926 11.3999 13.6108 14.9816 13.6108 19.3999H17.6108C17.6108 17.1908 19.4017 15.3999 21.6108 15.3999V11.3999Z" fill="white" fill-opacity="0.2"/>
</svg>
